# xmcd
#
# Track frame offsets: 
#        150
#        20407
#        39912
#        53635
#        73362
#        88005
#        103273
#        120181
#        135076
#        150693
#        165568
#        179949
#        191909
#
# Disc length: 2825 seconds
#
# Revision: 0
# Processed by: cddbd v1.5.2PL0 Copyright (c) Steve Scherf et al.
# Submitted via: ExactAudioCopy v0.99pb5
#
DISCID=ad0b070d
DTITLE=Burian Jan - Dvanact druhu samoty
DYEAR=2010
DGENRE=Blues
TTITLE0=Cerny z nebe
TTITLE1=Kamasutra
TTITLE2=1 - 1 =0
TTITLE3=Rybi plac
TTITLE4=Napoctvrty
TTITLE5=Vypadas pobavene
TTITLE6=Podzim
TTITLE7=Je pozde
TTITLE8=Predvanocni sen
TTITLE9=Plesata prisera
TTITLE10=Jeste tak pejska
TTITLE11=Louceni
TTITLE12=Samota
EXTD=
EXTT0=
EXTT1=
EXTT2=
EXTT3=
EXTT4=
EXTT5=
EXTT6=
EXTT7=
EXTT8=
EXTT9=
EXTT10=
EXTT11=
EXTT12=
PLAYORDER=
